<?xml version="1.0" encoding="utf-8"?>
<svg version="1.1" width="500px" height="500px" style="shape-rendering:geometricPrecision; text-rendering:geometricPrecision; image-rendering:optimizeQuality; fill-rule:evenodd; clip-rule:evenodd" xmlns="http://www.w3.org/2000/svg">
  <defs/>
  <g>
    <path style="opacity:0.997" fill="#020202" d="M 229.5 -0.5 C 243.167 -0.5 256.833 -0.5 270.5 -0.5 C 276.77 1.904 281.27 6.238 284 12.5 C 288.173 27.381 292.339 42.215 296.5 57 C 316.884 61.905 336.051 69.738 354 80.5 C 367.231 72.284 380.731 64.45 394.5 57 C 402.174 54.667 409.174 56.001 415.5 61 C 422.333 67.833 429.167 74.667 436 81.5 C 442.166 88.231 444.166 95.898 442 104.5 C 434.329 118.319 426.495 131.986 418.5 145.5 C 429.049 163.106 436.715 181.939 441.5 202 C 441.905 202.945 442.572 203.612 443.5 204 C 458.63 207.533 473.63 211.533 488.5 216 C 493.893 219.213 497.559 223.713 499.5 229.5 C 499.5 242.833 499.5 256.167 499.5 269.5 C 497.754 276.135 493.754 280.969 487.5 284 C 473.29 288.136 458.956 291.803 444.5 295 C 442.667 295.5 441.5 296.667 441 298.5 C 435.93 317.89 428.43 336.223 418.5 353.5 C 426.495 367.014 434.329 380.681 442 394.5 C 444.454 401.653 443.454 408.32 439 414.5 C 430.833 422.667 422.667 430.833 414.5 439 C 407.232 444.033 399.565 444.7 391.5 441 C 379.067 433.368 366.567 425.868 354 418.5 C 335.696 429.233 316.196 437.066 295.5 442 C 291.754 456.817 287.92 471.65 284 486.5 C 280.838 492.836 276.004 497.169 269.5 499.5 C 255.833 499.5 242.167 499.5 228.5 499.5 C 222.35 497.486 217.85 493.486 215 487.5 C 210.901 472.267 206.734 457.1 202.5 442 C 182.348 436.923 163.348 429.09 145.5 418.5 C 132.331 426.585 118.998 434.419 105.5 442 C 98.539 444.297 91.873 443.63 85.5 440 C 76.667 431.167 67.833 422.333 59 413.5 C 55.37 407.127 54.703 400.461 57 393.5 C 64.269 380.57 71.936 367.904 80 355.5 C 80.667 354.167 80.667 352.833 80 351.5 C 69.322 334.471 61.655 316.137 57 296.5 C 54.443 294.811 51.609 293.644 48.5 293 C 36.42 290.313 24.42 287.313 12.5 284 C 6.164 280.838 1.831 276.004 -0.5 269.5 C -0.5 255.833 -0.5 242.167 -0.5 228.5 C 1.514 222.35 5.514 217.85 11.5 215 C 26.751 210.953 41.918 206.787 57 202.5 C 62.298 182.265 70.132 163.098 80.5 145 C 72.628 132.093 65.128 118.927 58 105.5 C 55.098 97.074 56.431 89.408 62 82.5 C 68.833 75.667 75.667 68.833 82.5 62 C 89.039 56.53 96.373 54.864 104.5 57 C 118.269 64.45 131.769 72.284 145 80.5 C 163.778 69.941 183.445 61.608 204 55.5 C 207.355 41.414 211.022 27.414 215 13.5 C 217.774 6.557 222.607 1.89 229.5 -0.5 Z M 322.5 135.5 C 322.973 136.906 323.973 137.573 325.5 137.5 C 330.476 141.47 335.476 145.47 340.5 149.5 C 341.585 151.587 343.251 152.92 345.5 153.5 C 385.666 197.471 395.166 247.471 374 303.5 C 351.511 349.182 315.011 376.015 264.5 384 C 212.659 387.734 170.992 369.234 139.5 328.5 C 139.573 326.973 138.906 325.973 137.5 325.5 C 137.068 324.29 136.401 323.29 135.5 322.5 C 135.573 320.973 134.906 319.973 133.5 319.5 C 112.151 281.505 108.651 241.838 123 200.5 C 144.468 151.717 181.635 123.217 234.5 115 C 266.208 112.095 295.541 118.929 322.5 135.5 Z"/>
  </g>
  <g>
    <path style="opacity:0.997" fill="#030303" d="M 191.5,348.5 C 191.027,347.094 190.027,346.427 188.5,346.5C 153.68,323.888 135.68,291.555 134.5,249.5C 137.285,200.921 160.285,165.755 203.5,144C 247.361,127.145 287.695,133.145 324.5,162C 359.902,195.557 371.402,236.057 359,283.5C 345.501,323.665 318.334,349.498 277.5,361C 247.116,367.954 218.45,363.787 191.5,348.5 Z M 246.5,166.5 C 243.603,167.558 241.436,169.558 240,172.5C 239.333,199.5 239.333,226.5 240,253.5C 240.625,256.612 242.458,258.445 245.5,259C 262.167,259.667 278.833,259.667 295.5,259C 296.579,258.044 297.745,257.211 299,256.5C 302.97,249.419 301.47,243.919 294.5,240C 283.121,239.812 271.787,239.312 260.5,238.5C 259.667,216.508 259.167,194.508 259,172.5C 256.261,167.743 252.094,165.743 246.5,166.5 Z"/>
  </g>
  <g>
    <path style="opacity:0.29" fill="#7d7d7d" d="M 322.5,135.5 C 324.027,135.427 325.027,136.094 325.5,137.5C 323.973,137.573 322.973,136.906 322.5,135.5 Z"/>
  </g>
  <g>
    <path style="opacity:0.545" fill="#737373" d="M 340.5,149.5 C 342.749,150.08 344.415,151.413 345.5,153.5C 343.251,152.92 341.585,151.587 340.5,149.5 Z"/>
  </g>
  <g>
    <path style="opacity:0.275" fill="#777777" d="M 133.5,319.5 C 134.906,319.973 135.573,320.973 135.5,322.5C 134.094,322.027 133.427,321.027 133.5,319.5 Z"/>
  </g>
  <g>
    <path style="opacity:0.31" fill="#767676" d="M 137.5,325.5 C 138.906,325.973 139.573,326.973 139.5,328.5C 138.094,328.027 137.427,327.027 137.5,325.5 Z"/>
  </g>
  <g>
    <path style="opacity:0.267" fill="#7c7c7c" d="M 188.5,346.5 C 190.027,346.427 191.027,347.094 191.5,348.5C 189.973,348.573 188.973,347.906 188.5,346.5 Z"/>
  </g>
</svg>