<?xml version="1.0" encoding="UTF-8"?>
<!DOCTYPE svg PUBLIC "-//W3C//DTD SVG 1.1//EN" "http://www.w3.org/Graphics/SVG/1.1/DTD/svg11.dtd">
<svg xmlns="http://www.w3.org/2000/svg" version="1.1" width="158px" height="168px" style="shape-rendering:geometricPrecision; text-rendering:geometricPrecision; image-rendering:optimizeQuality; fill-rule:evenodd; clip-rule:evenodd" xmlns:xlink="http://www.w3.org/1999/xlink">
<g><path style="opacity:1" fill="#f5f6f9" d="M 69.5,-0.5 C 71.8333,-0.5 74.1667,-0.5 76.5,-0.5C 75.5257,26.8014 75.1924,54.1347 75.5,81.5C 74.8333,81.5 74.5,81.8333 74.5,82.5C 72.0274,82.0882 70.6941,83.0882 70.5,85.5C 67.0917,86.3668 63.7584,87.5335 60.5,89C 54.2591,92.2801 48.2591,95.7801 42.5,99.5C 40.8212,99.2852 39.8212,99.9519 39.5,101.5C 31.9875,104.421 24.9875,108.087 18.5,112.5C 16.1523,112.592 14.4856,113.592 13.5,115.5C 10.911,115.461 8.91104,116.461 7.5,118.5C 6.50838,118.328 5.84171,118.662 5.5,119.5C 4.83333,119.5 4.5,119.833 4.5,120.5C 2.88277,121.038 1.2161,121.371 -0.5,121.5C -0.5,93.5 -0.5,65.5 -0.5,37.5C 1.9798,36.758 4.31314,35.758 6.5,34.5C 10.2515,34.0601 13.2515,32.3934 15.5,29.5C 18.0567,27.3926 21.0567,26.0592 24.5,25.5C 25.7079,24.7659 27.0413,24.4326 28.5,24.5C 28.5,38.8333 28.5,53.1667 28.5,67.5C 28.8333,68.8333 29.1667,68.8333 29.5,67.5C 33.262,65.0831 37.262,63.0831 41.5,61.5C 42.8333,61.5 44.1667,61.5 45.5,61.5C 45.1673,45.8192 45.5006,30.1525 46.5,14.5C 47.4252,13.6431 48.0919,12.6431 48.5,11.5C 55.9567,8.24245 62.9567,4.24245 69.5,-0.5 Z"/></g>
<g><path style="opacity:1" fill="#f5f6f9" d="M 79.5,-0.5 C 81.5,-0.5 83.5,-0.5 85.5,-0.5C 87.6572,1.41207 89.9906,3.07874 92.5,4.5C 93.5137,5.67373 94.847,6.3404 96.5,6.5C 98.5792,8.87305 101.246,10.2064 104.5,10.5C 106.167,11.1667 107.833,11.8333 109.5,12.5C 110.348,14.0931 111.681,15.2597 113.5,16C 114.448,16.4828 115.448,16.6495 116.5,16.5C 119.146,18.1354 121.813,19.8021 124.5,21.5C 125.514,22.6737 126.847,23.3404 128.5,23.5C 130.434,24.1103 132.101,25.1103 133.5,26.5C 136.831,29.4994 140.831,31.4994 145.5,32.5C 146.609,32.5569 147.609,32.8902 148.5,33.5C 148.5,33.8333 148.5,34.1667 148.5,34.5C 149.29,35.4013 150.29,36.0679 151.5,36.5C 152.791,36.2627 153.791,36.596 154.5,37.5C 154.987,38.4734 155.487,39.4734 156,40.5C 156.5,59.4971 156.667,78.4971 156.5,97.5C 154.738,97.3573 153.071,97.6906 151.5,98.5C 151.594,97.0285 150.594,95.8618 148.5,95C 136.457,89.4351 124.79,83.2684 113.5,76.5C 113.44,75.9569 113.107,75.6236 112.5,75.5C 111.504,81.7985 111.17,88.1318 111.5,94.5C 109.833,94.5 108.167,94.5 106.5,94.5C 97.3116,90.0734 88.3116,85.4067 79.5,80.5C 79.5,53.5 79.5,26.5 79.5,-0.5 Z M 127.5,59.5 C 126.789,57.7986 125.455,56.7986 123.5,56.5C 119.967,54.5961 116.467,52.5961 113,50.5C 112.333,47.1667 112.333,43.8333 113,40.5C 116.717,43.1828 120.551,45.6828 124.5,48C 125.833,48.3333 127.167,48.6667 128.5,49C 128.632,52.5474 128.298,56.0474 127.5,59.5 Z"/></g>
<g><path style="opacity:0.718" fill="#eaf1e4" d="M 92.5,4.5 C 94.3797,4.22911 95.713,4.89578 96.5,6.5C 94.847,6.3404 93.5137,5.67373 92.5,4.5 Z"/></g>
<g><path style="opacity:0.616" fill="#eaf2e4" d="M 96.5,6.5 C 99.4422,7.30445 102.109,8.63778 104.5,10.5C 101.246,10.2064 98.5792,8.87305 96.5,6.5 Z"/></g>
<g><path style="opacity:0.098" fill="#e4f2df" d="M 109.5,12.5 C 112.676,13.5441 115.009,14.8774 116.5,16.5C 115.448,16.6495 114.448,16.4828 113.5,16C 111.681,15.2597 110.348,14.0931 109.5,12.5 Z"/></g>
<g><path style="opacity:0.424" fill="#e8f4e3" d="M 124.5,21.5 C 126.38,21.2291 127.713,21.8958 128.5,23.5C 126.847,23.3404 125.514,22.6737 124.5,21.5 Z"/></g>
<g><path style="opacity:0.937" fill="#ebf4e9" d="M 133.5,26.5 C 138.005,27.5531 142.005,29.5531 145.5,32.5C 140.831,31.4994 136.831,29.4994 133.5,26.5 Z"/></g>
<g><path style="opacity:0.292" fill="#f2f7ea" d="M 15.5,29.5 C 13.2515,32.3934 10.2515,34.0601 6.5,34.5C 9.22006,32.4735 12.2201,30.8068 15.5,29.5 Z"/></g>
<g><path style="opacity:0.515" fill="#f2f5ef" d="M 48.5,11.5 C 48.0919,12.6431 47.4252,13.6431 46.5,14.5C 45.5006,30.1525 45.1673,45.8192 45.5,61.5C 44.1667,61.5 42.8333,61.5 41.5,61.5C 42.172,60.7326 43.0053,60.0659 44,59.5C 44.1671,43.8227 44.6671,28.156 45.5,12.5C 46.4168,11.8728 47.4168,11.5394 48.5,11.5 Z"/></g>
<g><path style="opacity:0.035" fill="#d9f9dd" d="M 148.5,32.5 C 149.833,33.1667 149.833,33.1667 148.5,32.5 Z"/></g>
<g><path style="opacity:0.29" fill="#eaf3e4" d="M 148.5,34.5 C 150.179,34.2852 151.179,34.9519 151.5,36.5C 150.29,36.0679 149.29,35.4013 148.5,34.5 Z"/></g>
<g><path style="opacity:0.44" fill="#e6eee9" d="M 29.5,67.5 C 29.1667,67.5 28.8333,67.5 28.5,67.5C 28.5,53.1667 28.5,38.8333 28.5,24.5C 27.0413,24.4326 25.7079,24.7659 24.5,25.5C 25.5521,23.744 27.2188,23.0773 29.5,23.5C 29.5,38.1667 29.5,52.8333 29.5,67.5 Z"/></g>
<g><path style="opacity:0.459" fill="#ebf4e9" d="M 123.5,56.5 C 125.455,56.7986 126.789,57.7986 127.5,59.5C 125.545,59.2014 124.211,58.2014 123.5,56.5 Z"/></g>
<g><path style="opacity:0.529" fill="#e8edeb" d="M 154.5,37.5 C 155.609,37.5569 156.609,37.8902 157.5,38.5C 157.5,58.5 157.5,78.5 157.5,98.5C 156.833,98.5 156.5,98.1667 156.5,97.5C 156.667,78.4971 156.5,59.4971 156,40.5C 155.487,39.4734 154.987,38.4734 154.5,37.5 Z"/></g>
<g><path style="opacity:0.453" fill="#e9eeeb" d="M 113.5,76.5 C 112.672,82.6534 112.172,88.9867 112,95.5C 110.004,96.3411 108.171,96.0077 106.5,94.5C 108.167,94.5 109.833,94.5 111.5,94.5C 111.17,88.1318 111.504,81.7985 112.5,75.5C 113.107,75.6236 113.44,75.9569 113.5,76.5 Z"/></g>
<g><path style="opacity:1" fill="#f5f6f9" d="M 75.5,81.5 C 79.2665,81.4259 82.2665,82.9259 84.5,86C 104.979,96.1939 124.979,107.027 144.5,118.5C 145.29,119.401 146.29,120.068 147.5,120.5C 150.054,121.606 152.721,122.439 155.5,123C 156.406,124.699 156.739,126.533 156.5,128.5C 155.127,128.343 153.793,128.51 152.5,129C 143.591,134.358 134.757,139.192 126,143.5C 114.413,137.291 102.913,130.957 91.5,124.5C 88.5719,122.452 85.4053,120.785 82,119.5C 76.5006,121.333 71.3339,123.833 66.5,127C 79.1984,134.35 92.1984,141.183 105.5,147.5C 108.478,149.348 108.812,151.348 106.5,153.5C 99.2468,157.423 91.9135,161.256 84.5,165C 83.6195,165.708 82.9528,166.542 82.5,167.5C 79.1667,167.5 75.8333,167.5 72.5,167.5C 56.9883,158.577 41.3216,149.91 25.5,141.5C 17.8406,138.03 10.5073,133.863 3.5,129C 2.20677,128.51 0.873441,128.343 -0.5,128.5C -0.5,126.5 -0.5,124.5 -0.5,122.5C 1.69798,122.88 3.36465,122.213 4.5,120.5C 5.5,120.5 6.5,120.5 7.5,120.5C 9.56518,120.047 11.2318,119.047 12.5,117.5C 12.8333,116.833 13.1667,116.167 13.5,115.5C 15.5652,115.047 17.2318,114.047 18.5,112.5C 24.1039,110.035 29.7706,107.535 35.5,105C 37.0931,104.051 38.4264,102.885 39.5,101.5C 41.1788,101.715 42.1788,101.048 42.5,99.5C 52.3504,95.778 61.6837,91.1114 70.5,85.5C 72.4553,85.2014 73.7886,84.2014 74.5,82.5C 75.1667,82.5 75.5,82.1667 75.5,81.5 Z"/></g>
<g><path style="opacity:0.953" fill="#e9f3ed" d="M 12.5,117.5 C 11.2318,119.047 9.56518,120.047 7.5,120.5C 7.15829,119.662 6.49162,119.328 5.5,119.5C 5.84171,118.662 6.50838,118.328 7.5,118.5C 9.2161,118.371 10.8828,118.038 12.5,117.5 Z"/></g>
<g><path style="opacity:0.224" fill="#e6f3ea" d="M 144.5,118.5 C 146.179,118.285 147.179,118.952 147.5,120.5C 146.29,120.068 145.29,119.401 144.5,118.5 Z"/></g>
<g><path style="opacity:0.051" fill="#e2e4e6" d="M 91.5,124.5 C 90.8333,125.167 90.8333,125.167 91.5,124.5 Z"/></g>
<g><path style="opacity:0.051" fill="#e2f9e6" d="M 74.5,129.5 C 75.8333,130.167 75.8333,130.167 74.5,129.5 Z"/></g>
<g><path style="opacity:0.051" fill="#e2e4e6" d="M 25.5,141.5 C 25.1034,142.525 24.4368,142.692 23.5,142C 24.0944,141.536 24.7611,141.369 25.5,141.5 Z"/></g>
</svg>
